<!--
    Copied from
    https://github.com/mui/material-ui/blob/master/packages/mui-icons-material/material-icons/<id>_24px.svg
-->
<svg xmlns="http://www.w3.org/2000/svg" width="0" height="0">
  <symbol id="add" viewBox="0 0 24 24">
    <path d="M19 13h-6v6h-2v-6H5v-2h6V5h2v6h6v2z"/>
  </symbol>
  <symbol id="arrow_downward" viewBox="0 0 24 24">
    <path d="M20 12l-1.41-1.41L13 16.17V4h-2v12.17l-5.58-5.59L4 12l8 8 8-8z"/>
  </symbol>
  <symbol id="arrow_drop_up" viewBox="0 0 24 24">
    <path d="M7 14l5-5 5 5z"/>
  </symbol>
  <symbol id="arrow_upward" viewBox="0 0 24 24">
    <path d="M4 12l1.41 1.41L11 7.83V20h2V7.83l5.58 5.59L20 12l-8-8-8 8z"/>
  </symbol>
  <symbol id="cancel" viewBox="0 0 24 24">
    <path d="M12 2C6.47 2 2 6.47 2 12s4.47 10 10 10 10-4.47 10-10S17.53 2 12 2zm5 13.59L15.59 17 12 13.41 8.41 17 7 15.59 10.59 12 7 8.41 8.41 7 12 10.59 15.59 7 17 8.41 13.41 12 17 15.59z"/>
  </symbol>
  <symbol id="check" viewBox="0 0 24 24">
    <path d="M9 16.17L4.83 12l-1.42 1.41L9 19 21 7l-1.41-1.41z"/>
  </symbol>
  <symbol id="check_circle" viewBox="0 0 24 24">
    <path d="M12 2C6.48 2 2 6.48 2 12s4.48 10 10 10 10-4.48 10-10S17.52 2 12 2zm-2 15-5-5 1.41-1.41L10 14.17l7.59-7.59L19 8l-9 9z"/>
  </symbol>
  <symbol id="chevron_left" viewBox="0 0 24 24">
    <path d="M15.41 7.41L14 6l-6 6 6 6 1.41-1.41L10.83 12z"/>
  </symbol>
  <symbol id="chevron_right" viewBox="0 0 24 24">
    <path d="M10 6L8.59 7.41 13.17 12l-4.58 4.59L10 18l6-6z"/>
  </symbol>
  <symbol id="clear" viewBox="0 0 24 24">
    <path d="M19 6.41L17.59 5 12 10.59 6.41 5 5 6.41 10.59 12 5 17.59 6.41 19 12 13.41 17.59 19 19 17.59 13.41 12z"/>
  </symbol>
  <symbol id="close" viewBox="0 0 24 24">
    <path d="M19 6.41L17.59 5 12 10.59 6.41 5 5 6.41 10.59 12 5 17.59 6.41 19 12 13.41 17.59 19 19 17.59 13.41 12z"/>
  </symbol>
  <symbol id="collapse" viewBox="0 0 24 24">
    <path d="M16.59 8.59 12 13.17 7.41 8.59 6 10l6 6 6-6z"/>
  </symbol>
  <symbol id="delete" viewBox="0 0 24 24">
    <path d="M6 19c0 1.1.9 2 2 2h8c1.1 0 2-.9 2-2V7H6v12zM19 4h-3.5l-1-1h-5l-1 1H5v2h14V4z"/>
  </symbol>
  <symbol id="filter_list" viewBox="0 0 24 24">
    <path d="M10 18h4v-2h-4v2zM3 6v2h18V6H3zm3 7h12v-2H6v2z"/>
  </symbol>
  <symbol id="flag_outlined" viewBox="0 0 24 24">
    <path d="M12.36 6l.4 2H18v6h-3.36l-.4-2H7V6h5.36M14 4H5v17h2v-7h5.6l.4 2h7V6h-5.6L14 4z"/>
  </symbol>
  <symbol id="push_pin_outlined" viewBox="0 0 24 24">
    <path d="M14,4v5c0,1.12,0.37,2.16,1,3H9c0.65-0.86,1-1.9,1-3V4H14 M17,2H7C6.45,2,6,2.45,6,3c0,0.55,0.45,1,1,1c0,0,0,0,0,0l1,0v5 c0,1.66-1.34,3-3,3v2h5.97v7l1,1l1-1v-7H19v-2c0,0,0,0,0,0c-1.66,0-3-1.34-3-3V4l1,0c0,0,0,0,0,0c0.55,0,1-0.45,1-1 C18,2.45,17.55,2,17,2L17,2z"/>
  </symbol>
  <symbol id="search_off_outlined" viewBox="0 0 24 24">
    <g>
      <path d="M15.5,14h-0.79l-0.28-0.27C15.41,12.59,16,11.11,16,9.5C16,5.91,13.09,3,9.5,3C6.08,3,3.28,5.64,3.03,9h2.02 C5.3,6.75,7.18,5,9.5,5C11.99,5,14,7.01,14,9.5S11.99,14,9.5,14c-0.17,0-0.33-0.03-0.5-0.05v2.02C9.17,15.99,9.33,16,9.5,16 c1.61,0,3.09-0.59,4.23-1.57L14,14.71v0.79l5,4.99L20.49,19L15.5,14z"/>
      <polygon points="6.47,10.82 4,13.29 1.53,10.82 0.82,11.53 3.29,14 0.82,16.47 1.53,17.18 4,14.71 6.47,17.18 7.18,16.47 4.71,14 7.18,11.53"/>
    </g>
  </symbol>
  <symbol id="search_outlined" viewBox="0 0 24 24">
    <path d="M15.5 14h-.79l-.28-.27C15.41 12.59 16 11.11 16 9.5 16 5.91 13.09 3 9.5 3S3 5.91 3 9.5 5.91 16 9.5 16c1.61 0 3.09-.59 4.23-1.57l.27.28v.79l5 4.99L20.49 19l-4.99-5zm-6 0C7.01 14 5 11.99 5 9.5S7.01 5 9.5 5 14 7.01 14 9.5 11.99 14 9.5 14z"/>
  </symbol>
  <symbol id="sort_by_alpha" viewBox="0 0 24 24">
    <path d="M14.94 4.66h-4.72l2.36-2.36zm-4.69 14.71h4.66l-2.33 2.33zM6.1 6.27 1.6 17.73h1.84l.92-2.45h5.11l.92 2.45h1.84L7.74 6.27zm-1.13 7.37 1.94-5.18 1.94 5.18zm10.76 2.5h6.12v1.59h-8.53v-1.29l5.92-8.56h-5.88v-1.6h8.3v1.26z"/>
  </symbol>
</svg>
